<?xml version="1.0" standalone="no"?><!DOCTYPE svg PUBLIC "-//W3C//DTD SVG 1.1//EN" "http://www.w3.org/Graphics/SVG/1.1/DTD/svg11.dtd"><svg t="1620896611250" class="icon" viewBox="0 0 1024 1024" version="1.1" xmlns="http://www.w3.org/2000/svg" p-id="8508" xmlns:xlink="http://www.w3.org/1999/xlink" width="200" height="200"><defs><style type="text/css"></style></defs><path d="M541.167 356.444V239.778h-58.333v116.667H162v427.778h700V356.444H541.167z m262.5 369.445H220.333V414.778h583.333v311.111z" p-id="8509"></path><path d="M249.5 443.944h175v58.333h-175zM453.667 443.944H512v58.333h-58.333zM541.167 443.944H599.5v58.333h-58.333zM628.667 443.944H687v58.333h-58.333zM716.167 443.944H774.5v58.333h-58.333zM249.5 541.167h58.333V599.5H249.5zM337 541.167h58.333V599.5H337zM424.5 541.167h58.333V599.5H424.5zM512 541.167h58.333V599.5H512zM249.5 638.389h281.944v58.333H249.5zM638.389 696.722H774.5V560.611h-58.333v77.778h-77.778z" p-id="8510"></path></svg>