<?xml version="1.0" standalone="no"?><!DOCTYPE svg PUBLIC "-//W3C//DTD SVG 1.1//EN" "http://www.w3.org/Graphics/SVG/1.1/DTD/svg11.dtd"><svg t="1620958976103" class="icon" viewBox="0 0 1024 1024" version="1.1" xmlns="http://www.w3.org/2000/svg" p-id="5119" xmlns:xlink="http://www.w3.org/1999/xlink" width="200" height="200"><defs><style type="text/css"></style></defs><path d="M810.666667 469.333333a42.666667 42.666667 0 0 1 42.666666 42.666667c0 153.685333-131.285333 278.058667-298.666666 296.362667V938.666667h149.333333a21.333333 21.333333 0 0 1 21.333333 21.333333v42.666667a21.333333 21.333333 0 0 1-21.333333 21.333333h-384a21.333333 21.333333 0 0 1-21.333333-21.333333v-42.666667a21.333333 21.333333 0 0 1 21.333333-21.333333H469.333333v-130.304C301.952 790.101333 170.666667 665.685333 170.666667 512a42.666667 42.666667 0 0 1 85.333333 0c0 116.224 113.28 213.333333 256 213.333333s256-97.109333 256-213.333333a42.666667 42.666667 0 0 1 42.666667-42.666667zM512 0a213.333333 213.333333 0 0 1 213.333333 213.333333v256a213.333333 213.333333 0 0 1-426.666666 0V213.333333a213.333333 213.333333 0 0 1 213.333333-213.333333z m0 85.333333a128 128 0 0 0-127.786667 120.490667L384 213.333333v256a128 128 0 0 0 255.786667 7.509334L640 469.333333V213.333333a128 128 0 0 0-128-128z" p-id="5120" fill="#707070"></path></svg>